<svg xmlns="http://www.w3.org/2000/svg" viewBox="0 0 512 512">
  <g>
    <path style="fill: rgb(149,155,158);" d="m 0,0 512,0 L 512,512 0,512 Z" />
    <path style="fill: rgb(85,94,98);" d="m 256,128 a 74,74 0 0 0 -74,74 74,74 0 0 0 32.38281,61.09961 A 128,128 0 0 0 128,384 l 20,0 A 108,108 0 0 1 256,276 108,108 0 0 1 364,384 l 20,0 A 128,128 0 0 0 297.68164,263.13672 74,74 0 0 0 330,202 74,74 0 0 0 256,128 Z m 0,20 a 54,54 0 0 1 54,54 54,54 0 0 1 -54,54 54,54 0 0 1 -54,-54 54,54 0 0 1 54,-54 z" />
  </g>
</svg>